<svg width="339" height="18" viewBox="0 0 339 18" fill="none" xmlns="http://www.w3.org/2000/svg">
<path d="M9.422 11.786H2.708V9.05H8.864V6.872H2.708V4.154H9.386V1.94H0.26V14H9.422V11.786ZM17.4822 9.626L20.5062 5H17.6802L15.7182 8.024L13.7742 5H10.9482L13.9722 9.626L10.9482 14H13.7742L15.7182 11.156L17.6802 14H20.5062L17.4822 9.626ZM27.649 4.748C26.461 4.748 25.471 5.072 24.679 5.738V5.018H22.303V17.06H24.679V13.298C25.489 13.946 26.479 14.27 27.649 14.27C28.837 14.27 29.863 13.82 30.745 12.92C31.627 12.02 32.059 10.886 32.059 9.518C32.059 8.15 31.609 7.016 30.727 6.116C29.845 5.216 28.819 4.766 27.649 4.766V4.748ZM27.235 12.218C26.569 12.218 25.975 11.966 25.453 11.462C24.931 10.958 24.679 10.31 24.679 9.518C24.679 8.726 24.931 8.078 25.453 7.574C25.975 7.07 26.569 6.818 27.235 6.818C27.973 6.818 28.567 7.07 29.035 7.556C29.503 8.042 29.737 8.69 29.737 9.5C29.737 10.31 29.503 10.958 29.035 11.444C28.567 11.93 27.955 12.182 27.217 12.182L27.235 12.218ZM36.2278 14V1.04H33.8518V14H36.2278ZM42.9321 4.802C41.5641 4.802 40.4121 5.252 39.4581 6.134C38.5041 7.016 38.0361 8.15 38.0361 9.536C38.0361 10.922 38.5041 12.056 39.4581 12.938C40.4121 13.82 41.5641 14.27 42.9321 14.27C44.2821 14.27 45.4161 13.838 46.3521 12.956C47.2881 12.074 47.7561 10.94 47.7561 9.554C47.7561 8.168 47.2881 7.034 46.3521 6.152C45.4161 5.27 44.2641 4.838 42.9141 4.838L42.9321 4.802ZM42.9141 12.236C42.2301 12.236 41.6181 11.984 41.0961 11.498C40.5741 11.012 40.3041 10.364 40.3041 9.554C40.3041 8.744 40.5561 8.096 41.0781 7.61C41.6001 7.124 42.1941 6.872 42.8781 6.872C43.5441 6.872 44.1381 7.124 44.6601 7.628C45.1821 8.132 45.4341 8.78 45.4341 9.572C45.4341 10.364 45.1821 11.012 44.6601 11.516C44.1381 12.02 43.5441 12.272 42.8781 12.272L42.9141 12.236ZM55.1646 4.892C53.8326 4.892 52.7526 5.486 51.9426 6.656V5.018H49.5666V14H51.9426V11.102C51.9426 8.528 53.0046 7.25 55.1466 7.25H55.6686L55.7946 4.964C55.6506 4.91 55.4346 4.892 55.1646 4.892ZM65.6735 9.338C65.6195 7.988 65.1515 6.89 64.2695 6.026C63.3875 5.162 62.3255 4.73 61.1015 4.73C59.7875 4.73 58.6895 5.18 57.7895 6.08C56.8895 6.98 56.4395 8.132 56.4395 9.518C56.4395 10.904 56.8895 12.038 57.7715 12.92C58.6535 13.802 59.7515 14.252 61.0475 14.252C62.0555 14.252 62.9375 14.018 63.6935 13.55C64.4495 13.082 65.0255 12.398 65.4035 11.48L63.2795 11.03C62.8115 11.822 62.0735 12.218 61.0475 12.218C60.4895 12.218 60.0035 12.038 59.5895 11.66C59.1755 11.282 58.9055 10.778 58.7795 10.148H65.6195L65.6735 9.338ZM61.0655 6.818C61.5695 6.818 62.0195 6.962 62.3975 7.232C62.7755 7.502 63.0455 7.916 63.1895 8.474H58.8515C58.9775 7.952 59.2475 7.538 59.6795 7.25C60.1115 6.962 60.5615 6.818 61.0475 6.818H61.0655ZM77.6697 1.67C75.8877 1.67 74.3757 2.282 73.1517 3.506C71.9277 4.73 71.3157 6.224 71.3157 7.988C71.3157 9.734 71.9277 11.228 73.1517 12.452C74.3757 13.676 75.8697 14.288 77.6517 14.288C79.4337 14.288 80.9277 13.676 82.1517 12.452C83.3757 11.228 83.9877 9.752 83.9877 8.006C83.9877 6.242 83.3757 4.748 82.1517 3.524C80.9277 2.3 79.4157 1.688 77.6337 1.688L77.6697 1.67ZM77.6337 11.984C76.5357 11.984 75.6177 11.606 74.8617 10.85C74.1057 10.094 73.7277 9.14 73.7277 8.006C73.7277 6.872 74.1057 5.918 74.8617 5.144C75.6177 4.37 76.5357 3.992 77.6337 3.992C78.7317 3.992 79.6497 4.37 80.4057 5.144C81.1617 5.918 81.5397 6.872 81.5397 8.006C81.5397 9.14 81.1617 10.094 80.4057 10.85C79.6497 11.606 78.7317 11.984 77.6337 11.984ZM94.5741 5.018H92.1981V8.996C92.1981 11.066 91.4601 12.092 89.9661 12.092C89.4081 12.092 88.9581 11.894 88.6341 11.516C88.3101 11.138 88.1481 10.634 88.1481 10.004V5.036H85.7721V10.508C85.7721 11.624 86.0961 12.542 86.7621 13.244C87.4281 13.946 88.2921 14.306 89.3721 14.306C90.5421 14.306 91.4781 13.946 92.1981 13.226V14.036H94.5741V5.018ZM102.696 4.892C101.364 4.892 100.284 5.486 99.4739 6.656V5.018H97.0979V14H99.4739V11.102C99.4739 8.528 100.536 7.25 102.678 7.25H103.2L103.326 4.964C103.182 4.91 102.966 4.892 102.696 4.892ZM111.64 4.154H118.192V1.94H109.192V14H111.64V9.32H117.49V7.106H111.64V4.154ZM123.809 4.802C122.441 4.802 121.289 5.252 120.335 6.134C119.381 7.016 118.913 8.15 118.913 9.536C118.913 10.922 119.381 12.056 120.335 12.938C121.289 13.82 122.441 14.27 123.809 14.27C125.159 14.27 126.293 13.838 127.229 12.956C128.165 12.074 128.633 10.94 128.633 9.554C128.633 8.168 128.165 7.034 127.229 6.152C126.293 5.27 125.141 4.838 123.791 4.838L123.809 4.802ZM123.791 12.236C123.107 12.236 122.495 11.984 121.973 11.498C121.451 11.012 121.181 10.364 121.181 9.554C121.181 8.744 121.433 8.096 121.955 7.61C122.477 7.124 123.071 6.872 123.755 6.872C124.421 6.872 125.015 7.124 125.537 7.628C126.059 8.132 126.311 8.78 126.311 9.572C126.311 10.364 126.059 11.012 125.537 11.516C125.015 12.02 124.421 12.272 123.755 12.272L123.791 12.236ZM139.012 5.018H136.636V8.996C136.636 11.066 135.898 12.092 134.404 12.092C133.846 12.092 133.396 11.894 133.072 11.516C132.748 11.138 132.586 10.634 132.586 10.004V5.036H130.21V10.508C130.21 11.624 130.534 12.542 131.2 13.244C131.866 13.946 132.73 14.306 133.81 14.306C134.98 14.306 135.916 13.946 136.636 13.226V14.036H139.012V5.018ZM146.737 4.748C145.567 4.748 144.631 5.108 143.911 5.828V5.018H141.535V14H143.911V10.022C143.911 7.952 144.649 6.926 146.143 6.926C146.701 6.926 147.133 7.124 147.457 7.502C147.781 7.88 147.943 8.384 147.943 9.014V13.982H150.319V8.51C150.319 7.394 149.995 6.494 149.329 5.792C148.663 5.09 147.799 4.748 146.719 4.748H146.737ZM161.663 1.04H159.287V5.738C158.495 5.072 157.505 4.748 156.317 4.748C155.147 4.748 154.121 5.198 153.239 6.098C152.357 6.998 151.907 8.132 151.907 9.5C151.907 10.868 152.339 12.002 153.221 12.902C154.103 13.802 155.129 14.252 156.317 14.252C157.487 14.252 158.477 13.928 159.287 13.28V13.982H161.663V1.04ZM156.731 12.182C155.993 12.182 155.381 11.948 154.913 11.462C154.445 10.976 154.211 10.328 154.211 9.518C154.211 8.708 154.445 8.06 154.913 7.574C155.381 7.088 155.975 6.836 156.713 6.836C157.379 6.836 157.973 7.088 158.495 7.592C159.017 8.096 159.269 8.744 159.269 9.536C159.269 10.328 159.017 10.976 158.495 11.48C157.973 11.984 157.379 12.236 156.713 12.236L156.731 12.182ZM172.654 9.338C172.6 7.988 172.132 6.89 171.25 6.026C170.368 5.162 169.306 4.73 168.082 4.73C166.768 4.73 165.67 5.18 164.77 6.08C163.87 6.98 163.42 8.132 163.42 9.518C163.42 10.904 163.87 12.038 164.752 12.92C165.634 13.802 166.732 14.252 168.028 14.252C169.036 14.252 169.918 14.018 170.674 13.55C171.43 13.082 172.006 12.398 172.384 11.48L170.26 11.03C169.792 11.822 169.054 12.218 168.028 12.218C167.47 12.218 166.984 12.038 166.57 11.66C166.156 11.282 165.886 10.778 165.76 10.148H172.6L172.654 9.338ZM168.046 6.818C168.55 6.818 169 6.962 169.378 7.232C169.756 7.502 170.026 7.916 170.17 8.474H165.832C165.958 7.952 166.228 7.538 166.66 7.25C167.092 6.962 167.542 6.818 168.028 6.818H168.046ZM180.057 4.892C178.725 4.892 177.645 5.486 176.835 6.656V5.018H174.459V14H176.835V11.102C176.835 8.528 177.897 7.25 180.039 7.25H180.561L180.687 4.964C180.543 4.91 180.327 4.892 180.057 4.892ZM181.332 11.624C181.44 12.506 181.872 13.172 182.628 13.604C183.384 14.036 184.302 14.252 185.364 14.252C186.57 14.252 187.524 14 188.244 13.478C188.964 12.956 189.324 12.218 189.324 11.246C189.324 10.616 189.126 10.076 188.73 9.626C188.334 9.176 187.74 8.87 186.966 8.708L184.824 8.24C184.284 8.114 184.014 7.862 184.014 7.484C184.014 7.25 184.104 7.052 184.302 6.872C184.5 6.692 184.806 6.602 185.238 6.602C185.724 6.602 186.12 6.71 186.426 6.944C186.732 7.178 186.912 7.484 186.966 7.862L189.234 7.412C189.072 6.62 188.64 5.972 187.938 5.486C187.236 5 186.354 4.748 185.31 4.748C184.194 4.748 183.294 5.018 182.628 5.576C181.962 6.134 181.62 6.854 181.62 7.736C181.62 8.384 181.836 8.924 182.268 9.374C182.7 9.824 183.33 10.13 184.14 10.292L185.976 10.67C186.642 10.814 186.966 11.084 186.966 11.48C186.966 11.75 186.84 11.966 186.588 12.128C186.336 12.29 185.994 12.38 185.562 12.38C184.428 12.38 183.816 11.966 183.708 11.156L181.332 11.624ZM192.293 6.764L194.327 1.994V1.94H191.591L190.511 6.764H192.293ZM211.29 14L207.24 9.518C208.302 9.356 209.148 8.942 209.778 8.276C210.408 7.61 210.714 6.764 210.714 5.756C210.714 4.622 210.318 3.704 209.526 3.002C208.734 2.3 207.69 1.958 206.394 1.958H200.616V14.018H203.064V9.59H204.342L208.32 14.018L211.29 14ZM203.064 7.376V4.172H206.394C206.952 4.172 207.402 4.316 207.744 4.604C208.086 4.892 208.266 5.288 208.266 5.774C208.266 6.26 208.086 6.656 207.744 6.944C207.402 7.232 206.952 7.376 206.394 7.376H203.064ZM220.853 9.338C220.799 7.988 220.331 6.89 219.449 6.026C218.567 5.162 217.505 4.73 216.281 4.73C214.967 4.73 213.869 5.18 212.969 6.08C212.069 6.98 211.619 8.132 211.619 9.518C211.619 10.904 212.069 12.038 212.951 12.92C213.833 13.802 214.931 14.252 216.227 14.252C217.235 14.252 218.117 14.018 218.873 13.55C219.629 13.082 220.205 12.398 220.583 11.48L218.459 11.03C217.991 11.822 217.253 12.218 216.227 12.218C215.669 12.218 215.183 12.038 214.769 11.66C214.355 11.282 214.085 10.778 213.959 10.148H220.799L220.853 9.338ZM216.245 6.818C216.749 6.818 217.199 6.962 217.577 7.232C217.955 7.502 218.225 7.916 218.369 8.474H214.031C214.157 7.952 214.427 7.538 214.859 7.25C215.291 6.962 215.741 6.818 216.227 6.818H216.245ZM226.744 12.092C226.006 12.092 225.394 11.858 224.926 11.39C224.458 10.922 224.224 10.31 224.224 9.536C224.224 8.762 224.458 8.132 224.926 7.646C225.394 7.16 225.988 6.926 226.726 6.926C227.896 6.926 228.634 7.52 228.94 8.708L231.226 8.06C230.92 7.07 230.362 6.278 229.534 5.666C228.706 5.054 227.77 4.748 226.708 4.748C225.358 4.748 224.224 5.198 223.288 6.098C222.352 6.998 221.884 8.15 221.884 9.536C221.884 10.922 222.352 12.056 223.288 12.938C224.224 13.82 225.358 14.27 226.708 14.27C227.788 14.27 228.742 13.964 229.57 13.352C230.398 12.74 230.938 11.93 231.19 10.904L228.994 10.346C228.616 11.516 227.842 12.092 226.69 12.092H226.744ZM241.525 9.338C241.471 7.988 241.003 6.89 240.121 6.026C239.239 5.162 238.177 4.73 236.953 4.73C235.639 4.73 234.541 5.18 233.641 6.08C232.741 6.98 232.291 8.132 232.291 9.518C232.291 10.904 232.741 12.038 233.623 12.92C234.505 13.802 235.603 14.252 236.899 14.252C237.907 14.252 238.789 14.018 239.545 13.55C240.301 13.082 240.877 12.398 241.255 11.48L239.131 11.03C238.663 11.822 237.925 12.218 236.899 12.218C236.341 12.218 235.855 12.038 235.441 11.66C235.027 11.282 234.757 10.778 234.631 10.148H241.471L241.525 9.338ZM236.917 6.818C237.421 6.818 237.871 6.962 238.249 7.232C238.627 7.502 238.897 7.916 239.041 8.474H234.703C234.829 7.952 235.099 7.538 235.531 7.25C235.963 6.962 236.413 6.818 236.899 6.818H236.917ZM248.532 4.748C247.362 4.748 246.426 5.108 245.706 5.828V5.018H243.33V14H245.706V10.022C245.706 7.952 246.444 6.926 247.938 6.926C248.496 6.926 248.928 7.124 249.252 7.502C249.576 7.88 249.738 8.384 249.738 9.014V13.982H252.114V8.51C252.114 7.394 251.79 6.494 251.124 5.792C250.458 5.09 249.594 4.748 248.514 4.748H248.532ZM260.272 11.624C259.732 11.912 259.228 12.056 258.778 12.056C257.896 12.056 257.464 11.534 257.464 10.508V6.962H260.398V5.018H257.464V2.3H255.088V5.018H253.162V6.962H255.088V10.688C255.088 11.894 255.394 12.794 256.024 13.388C256.654 13.982 257.518 14.288 258.616 14.288C259.354 14.288 260.128 14.072 260.956 13.622L260.272 11.624ZM266.604 1.94V14H269.052V10.058H272.22C273.606 10.058 274.686 9.698 275.478 8.96C276.27 8.222 276.666 7.232 276.666 5.99C276.666 4.766 276.27 3.794 275.46 3.056C274.65 2.318 273.57 1.958 272.202 1.958L266.604 1.94ZM269.034 7.862V4.172H272.202C272.85 4.172 273.354 4.334 273.714 4.676C274.074 5.018 274.254 5.468 274.254 6.026C274.254 6.584 274.074 7.034 273.714 7.376C273.354 7.718 272.85 7.88 272.202 7.88L269.034 7.862ZM284.172 4.892C282.84 4.892 281.76 5.486 280.95 6.656V5.018H278.574V14H280.95V11.102C280.95 8.528 282.012 7.25 284.154 7.25H284.676L284.802 4.964C284.658 4.91 284.442 4.892 284.172 4.892ZM290.379 4.802C289.011 4.802 287.859 5.252 286.905 6.134C285.951 7.016 285.483 8.15 285.483 9.536C285.483 10.922 285.951 12.056 286.905 12.938C287.859 13.82 289.011 14.27 290.379 14.27C291.729 14.27 292.863 13.838 293.799 12.956C294.735 12.074 295.203 10.94 295.203 9.554C295.203 8.168 294.735 7.034 293.799 6.152C292.863 5.27 291.711 4.838 290.361 4.838L290.379 4.802ZM290.361 12.236C289.677 12.236 289.065 11.984 288.543 11.498C288.021 11.012 287.751 10.364 287.751 9.554C287.751 8.744 288.003 8.096 288.525 7.61C289.047 7.124 289.641 6.872 290.325 6.872C290.991 6.872 291.585 7.124 292.107 7.628C292.629 8.132 292.881 8.78 292.881 9.572C292.881 10.364 292.629 11.012 292.107 11.516C291.585 12.02 290.991 12.272 290.325 12.272L290.361 12.236ZM298.526 0.913999C298.112 0.913999 297.77 1.058 297.5 1.346C297.23 1.634 297.086 1.976 297.086 2.354C297.086 2.75 297.212 3.074 297.482 3.344C297.752 3.614 298.094 3.74 298.508 3.74C298.922 3.74 299.264 3.614 299.534 3.344C299.804 3.074 299.948 2.75 299.948 2.354C299.948 1.976 299.804 1.652 299.534 1.364C299.264 1.076 298.922 0.932 298.508 0.932L298.526 0.913999ZM295.268 16.916C295.88 17.15 296.492 17.258 297.104 17.258C297.896 17.258 298.526 17.024 299.012 16.538C299.498 16.052 299.732 15.422 299.732 14.648V5.036H297.356V14.324C297.356 14.522 297.284 14.684 297.122 14.81C296.96 14.936 296.762 15.008 296.51 15.008C296.312 15.008 296.042 14.954 295.7 14.828L295.268 16.916ZM310.836 9.338C310.782 7.988 310.314 6.89 309.432 6.026C308.55 5.162 307.488 4.73 306.264 4.73C304.95 4.73 303.852 5.18 302.952 6.08C302.052 6.98 301.602 8.132 301.602 9.518C301.602 10.904 302.052 12.038 302.934 12.92C303.816 13.802 304.914 14.252 306.21 14.252C307.218 14.252 308.1 14.018 308.856 13.55C309.612 13.082 310.188 12.398 310.566 11.48L308.442 11.03C307.974 11.822 307.236 12.218 306.21 12.218C305.652 12.218 305.166 12.038 304.752 11.66C304.338 11.282 304.068 10.778 303.942 10.148H310.782L310.836 9.338ZM306.228 6.818C306.732 6.818 307.182 6.962 307.56 7.232C307.938 7.502 308.208 7.916 308.352 8.474H304.014C304.14 7.952 304.41 7.538 304.842 7.25C305.274 6.962 305.724 6.818 306.21 6.818H306.228ZM316.727 12.092C315.989 12.092 315.377 11.858 314.909 11.39C314.441 10.922 314.207 10.31 314.207 9.536C314.207 8.762 314.441 8.132 314.909 7.646C315.377 7.16 315.971 6.926 316.709 6.926C317.879 6.926 318.617 7.52 318.923 8.708L321.209 8.06C320.903 7.07 320.345 6.278 319.517 5.666C318.689 5.054 317.753 4.748 316.691 4.748C315.341 4.748 314.207 5.198 313.271 6.098C312.335 6.998 311.867 8.15 311.867 9.536C311.867 10.922 312.335 12.056 313.271 12.938C314.207 13.82 315.341 14.27 316.691 14.27C317.771 14.27 318.725 13.964 319.553 13.352C320.381 12.74 320.921 11.93 321.173 10.904L318.977 10.346C318.599 11.516 317.825 12.092 316.673 12.092H316.727ZM328.88 11.624C328.34 11.912 327.836 12.056 327.386 12.056C326.504 12.056 326.072 11.534 326.072 10.508V6.962H329.006V5.018H326.072V2.3H323.696V5.018H321.77V6.962H323.696V10.688C323.696 11.894 324.002 12.794 324.632 13.388C325.262 13.982 326.126 14.288 327.224 14.288C327.962 14.288 328.736 14.072 329.564 13.622L328.88 11.624ZM330.078 11.624C330.186 12.506 330.618 13.172 331.374 13.604C332.13 14.036 333.048 14.252 334.11 14.252C335.316 14.252 336.27 14 336.99 13.478C337.71 12.956 338.07 12.218 338.07 11.246C338.07 10.616 337.872 10.076 337.476 9.626C337.08 9.176 336.486 8.87 335.712 8.708L333.57 8.24C333.03 8.114 332.76 7.862 332.76 7.484C332.76 7.25 332.85 7.052 333.048 6.872C333.246 6.692 333.552 6.602 333.984 6.602C334.47 6.602 334.866 6.71 335.172 6.944C335.478 7.178 335.658 7.484 335.712 7.862L337.98 7.412C337.818 6.62 337.386 5.972 336.684 5.486C335.982 5 335.1 4.748 334.056 4.748C332.94 4.748 332.04 5.018 331.374 5.576C330.708 6.134 330.366 6.854 330.366 7.736C330.366 8.384 330.582 8.924 331.014 9.374C331.446 9.824 332.076 10.13 332.886 10.292L334.722 10.67C335.388 10.814 335.712 11.084 335.712 11.48C335.712 11.75 335.586 11.966 335.334 12.128C335.082 12.29 334.74 12.38 334.308 12.38C333.174 12.38 332.562 11.966 332.454 11.156L330.078 11.624Z" fill="#131D3B"/>
</svg>
